PathFileType	4	(X/Y/Z)	Patient4_TMGait_0pt4_02_right_13.trc.trc
DataRate	CameraRate	NumFrames	NumMarkers	Units	OrigDataRate	OrigDataStartFrame	OrigNumFrames
75.268817204301	75.268817204301	4	33	mm	75.268817204301	53	       141
Frame#	Time	Sacral			L.Shoulder			Chest			R.Shoulder			Neck			R.ASIS			L.ASIS			R.Thigh.Superior			R.Thigh.Lateral			R.Thigh.Inferior			R.Patella			L.Thigh.Superior			L.Thigh.Lateral			L.Thigh.Inferior			L.Patella			L.Shank.Superior			L.Shank.Lateral			L.Shank.Inferior			R.Shank.Superior			R.Shank.Lateral			R.Shank.Inferior			R.Heel			R.Midfoot.Superior			R.Midfoot.Lateral			R.Toe			L.Heel			L.Midfoot.Lateral			L.Midfoot.Superior			L.Toe			L.Elbow			L.Wrist			R.Elbow			R.Wrist			
		X1	Y1	Z1	X2	Y2	Z2	X3	Y3	Z3	X4	Y4	Z4	X5	Y5	Z5	X6	Y6	Z6	X7	Y7	Z7	X8	Y8	Z8	X9	Y9	Z9	X10	Y10	Z10	X11	Y11	Z11	X12	Y12	Z12	X13	Y13	Z13	X14	Y14	Z14	X15	Y15	Z15	X16	Y16	Z16	X17	Y17	Z17	X18	Y18	Z18	X19	Y19	Z19	X20	Y20	Z20	X21	Y21	Z21	X22	Y22	Z22	X23	Y23	Z23	X24	Y24	Z24	X25	Y25	Z25	X26	Y26	Z26	X27	Y27	Z27	X28	Y28	Z28	X29	Y29	Z29	X30	Y30	Z30	X31	Y31	Z31	X32	Y32	Z32	X33	Y33	Z33	

53	17.390857142857	861.392156941908	1007.977401705466	518.411654381856	1032.703848019719	1425.946982358186	307.481497324675	1149.333325083850	1364.735224191856	461.764928849280	1083.040385676824	1448.573163278761	638.609761445594	1035.790340828738	1496.015789129865	459.801004929182	1100.643699719729	943.331745375566	615.160549585272	1061.498200188963	966.001253279678	343.635102367697	1132.470410376186	738.514379960589	581.296634947748	1049.858229712385	631.919562081630	646.264941009170	1118.646910210927	577.479482389525	561.024346604547	1114.485180005173	489.810144307729	565.945395637468	1151.233812813488	789.786120553225	367.326832363696	1109.286408479289	661.319356256131	289.498717582916	1218.992366253579	606.366371747627	344.222054394421	1240.935341038397	525.319574001690	335.795988390195	1195.046909910189	451.138654871328	326.530937301935	1075.045111168048	364.657286365302	282.195484437628	1114.375329949742	236.924207365273	328.858128882738	1083.466183950155	401.711265395648	574.056189581782	1011.691097599968	300.823598676363	638.838728035062	1045.082782825427	204.868805372051	572.601254387010	904.137112720252	42.833571766190	549.748431085438	1076.338698128174	96.780972016379	579.546279465282	989.514249372981	37.441116943723	621.945811066994	1197.568545959556	42.860249884883	604.167708238360	965.980307817884	107.336655397008	374.133475845964	1028.200733246205	87.928420806977	287.629226680549	1124.511220826374	132.297310634898	303.508430560661	1233.304552939317	57.030994041209	262.823204256225	986.373087964436	1070.961868523479	204.862146777355	1084.898546507285	829.006768867380	171.934376056795	1114.742351333029	1126.103186291558	805.315228778233	1341.270724969915	1024.014397853007	746.236772779772	
54	17.404142857143	860.485693740694	1008.748438929772	520.295515857878	1031.540619182939	1425.950159837694	308.000531471522	1149.353432196200	1364.300689461735	461.195917165621	1085.172413421269	1448.642016221898	638.569249390876	1036.081057838477	1496.100370772330	460.058538065237	1100.008955615493	942.944058551990	614.760521338624	1058.864025135208	966.510014975139	343.526116481305	1129.917255969878	737.877191218394	580.480209445781	1047.083039269538	631.873154294342	646.356563531220	1114.634666588125	576.934113036090	560.612196300351	1109.907476259536	489.449448419920	565.763153694441	1148.208245410083	790.583133073023	367.413046555286	1106.822592655053	662.097383475780	289.436112691230	1216.210581661028	607.537415222352	345.331397934213	1239.744656594640	528.464289548915	336.348752879929	1197.757130089978	453.836095447778	326.492968202506	1083.759046075514	359.970028333461	281.652751031609	1131.582484896216	234.511732729596	327.822512484221	1078.792519448537	401.516367153325	574.072223484235	1006.948388545646	300.727835507524	638.933484995042	1039.942134126967	204.734023193165	572.653539754517	898.763616377146	42.819771239656	549.813070072252	1070.950822590688	96.692761336773	579.523571813211	984.161329532231	37.421418862730	622.000479797008	1192.201794591815	42.821938237387	604.224544167172	992.437480544918	94.320167745570	372.925361153758	1055.739967929754	79.961797432971	286.119410293804	1148.855752629029	130.881922137908	301.951215510999	1262.713648457279	63.773479182356	260.624071547826	982.617264441950	1071.110157567106	206.080026481695	1075.807568560540	827.292884528285	172.327721721360	1122.916952013152	1126.914359976746	804.566168680889	1352.427351849175	1037.106674086472	739.792208854638	
55	17.417428571429	859.678531075724	1009.418734911867	521.979124159129	1030.425263516244	1425.924641370611	308.373069784889	1149.371942580969	1363.809472362226	460.493065324373	1087.227151854817	1448.594045335492	638.373742800544	1036.341166503434	1496.124970076244	460.195665093854	1099.379076346097	942.551758591599	614.185845000443	1056.360986345423	966.890698406320	343.240451611185	1127.368643253136	737.234222024206	579.618232552309	1044.326900699245	631.815488965892	646.412666752696	1110.654035339846	576.382310003889	560.199422699621	1105.356961820357	489.095761380762	565.603935275537	1145.030839223103	790.988190988191	367.561979491325	1104.350649739264	662.684678406572	289.145695722090	1213.024926385501	608.232070404933	346.668256505868	1238.107937035301	531.250510699988	337.097519281976	1199.970753129870	456.364858210006	326.652262540335	1092.461007918487	355.623836649259	280.860793842688	1148.123312990078	232.905313112975	326.987587578449	1074.167534299485	401.332481211431	574.096065398074	1002.232956206486	300.642816732979	639.036659219059	1034.825131679694	204.604937189196	572.705378412684	893.392879194753	42.816188954365	549.878318958676	1065.569308903910	96.592897450620	579.494507050459	978.815933215834	37.404983706803	622.056935081576	1186.843638854003	42.761031651450	604.282592157305	1018.298159864380	83.086786781585	371.342723269821	1082.854266208283	73.516687179233	284.655256946591	1172.396499048976	130.561976704466	300.861282115147	1290.841931713947	71.474589849885	259.726869907246	979.011713096205	1071.252707438068	207.123779875163	1066.907746941050	825.711611503183	172.645189972626	1130.974951790208	1127.508700884560	803.255852742856	1362.691467567089	1049.883661841811	732.974472988034	
56	17.430714285714	858.949202141020	1009.998048846393	523.426326176149	1029.363736439041	1425.879538360140	308.584959232722	1149.379065465753	1363.275959218786	459.657667643949	1089.172554587434	1448.446708722580	638.018207253934	1036.563354541423	1496.100541623844	460.201329382684	1098.748841642411	942.166396710405	613.461646697529	1054.008422643788	967.150315928850	342.789681934247	1124.847638986847	736.587470108841	578.762874017143	1041.570647051379	631.746981106103	646.429014362012	1106.723620349089	575.826595386215	559.802789643629	1100.849764037244	488.749751535649	565.462967985998	1141.792062216357	791.088006249109	367.781625507226	1101.989965899979	663.146153180458	288.645586282415	1209.620101702843	608.555751230007	348.117002363719	1236.176638273246	533.710849495707	337.992997815445	1201.755383831560	458.731881989212	326.992156833138	1101.015004340239	351.782725928088	279.850343777165	1163.672095512098	232.145416573097	326.390651436463	1069.592913600761	401.155246774969	574.116184953000	997.541002037418	300.574210657700	639.142110545664	1029.736407986965	204.483501627869	572.753008157711	888.026345363091	42.822472147110	549.944296302246	1060.195448139424	96.489073792564	579.464139382452	973.475596558797	37.391913527149	622.115167694334	1181.492909112569	42.685904725481	604.341894048714	1042.932900804070	73.857679986017	369.447044142415	1108.947571042223	68.673620718048	283.323863034656	1194.652543244838	131.302022829354	300.307645745258	1317.167863023922	79.881401984651	260.264484000110	975.538054353802	1071.396481523467	207.986052752513	1058.256636237252	824.284761581872	172.889291241931	1138.886442916633	1127.896749450393	801.377078752368	1372.063794867263	1062.207584307286	725.835615380551	
